HIERARCHY
ROOT hip
{
  OFFSET 0 0 0
  CHANNELS 6 Xposition Yposition Zposition Zrotation Yrotation Xrotation
  JOINT abdomen
  {
    OFFSET 0 20.6881 -0.73152
    CHANNELS 3 Zrotation Xrotation Yrotation
    JOINT chest
    {
      OFFSET 0 11.7043 -0.48768
      CHANNELS 3 Zrotation Xrotation Yrotation
      JOINT neck
      {
        OFFSET 0 22.1894 -2.19456
        CHANNELS 3 Zrotation Xrotation Yrotation
        JOINT head
        {
          OFFSET -0.24384 7.07133 1.2192
          CHANNELS 3 Zrotation Xrotation Yrotation
          JOINT leftEye
          {
            OFFSET 4.14528 8.04674 8.04672
            CHANNELS 3 Zrotation Xrotation Yrotation
            End Site
            {
              OFFSET 1 0 0
            }
          }
          JOINT rightEye
          {
            OFFSET -3.6576 8.04674 8.04672
            CHANNELS 3 Zrotation Xrotation Yrotation
            End Site
            {
              OFFSET 1 0 0
            }
          }
        }
      }
      JOINT rCollar
      {
        OFFSET -2.68224 19.2634 -4.8768
        CHANNELS 3 Zrotation Xrotation Yrotation
        JOINT rShldr
        {
          OFFSET -8.77824 -1.95073 1.46304
          CHANNELS 3 Zrotation Xrotation Yrotation
          JOINT rForeArm
          {
            OFFSET -28.1742 -1.7115 0.48768
            CHANNELS 3 Zrotation Xrotation Yrotation
            JOINT rHand
            {
              OFFSET -22.5879 0.773209 7.07136
              CHANNELS 3 Zrotation Xrotation Yrotation
              JOINT rThumb1
              {
                OFFSET -1.2192 -0.487915 3.41376
                CHANNELS 3 Zrotation Xrotation Yrotation
                JOINT rThumb2
                {
                  OFFSET -3.37035 -0.52449 3.41376
                  CHANNELS 3 Zrotation Xrotation Yrotation
                  End Site
                  {
                    OFFSET -1.78271 -1.18214 1.43049
                  }
                }
              }
              JOINT rIndex1
              {
                OFFSET -7.75947 0.938293 5.60832
                CHANNELS 3 Zrotation Xrotation Yrotation
                JOINT rIndex2
                {
                  OFFSET -2.54057 -0.884171 1.56538
                  CHANNELS 3 Zrotation Xrotation Yrotation
                  End Site
                  {
                    OFFSET -1.62519 -0.234802 1.16502
                  }
                }
              }
              JOINT rMid1
              {
                OFFSET -8.24714 1.18213 3.41376
                CHANNELS 3 Zrotation Xrotation Yrotation
                JOINT rMid2
                {
                  OFFSET -3.10165 -0.590103 1.0647
                  CHANNELS 3 Zrotation Xrotation Yrotation
                  End Site
                  {
                    OFFSET -2.48547 -0.328903 0.83742
                  }
                }
              }
              JOINT rRing1
              {
                OFFSET -8.82822 0.546677 1.51678
                CHANNELS 3 Zrotation Xrotation Yrotation
                JOINT rRing2
                {
                  OFFSET -2.60934 -0.819778 -0.0198488
                  CHANNELS 3 Zrotation Xrotation Yrotation
                  End Site
                  {
                    OFFSET -2.33842 -0.294052 0.168128
                  }
                }
              }
              JOINT rPinky1
              {
                OFFSET -8.27202 -0.0477905 -0.4584
                CHANNELS 3 Zrotation Xrotation Yrotation
                JOINT rPinky2
                {
                  OFFSET -1.82734 -0.647385 -0.700984
                  CHANNELS 3 Zrotation Xrotation Yrotation
                  End Site
                  {
                    OFFSET -1.69225 -0.51767 -0.607171
                  }
                }
              }
            }
          }
        }
      }
      JOINT lCollar
      {
        OFFSET 2.68224 19.2634 -4.8768
        CHANNELS 3 Zrotation Xrotation Yrotation
        JOINT lShldr
        {
          OFFSET 8.77824 -1.95073 1.46304
          CHANNELS 3 Zrotation Xrotation Yrotation
          JOINT lForeArm
          {
            OFFSET 28.1742 -1.7115 0.48768
            CHANNELS 3 Zrotation Xrotation Yrotation
            JOINT lHand
            {
              OFFSET 22.5879 0.773209 7.07136
              CHANNELS 3 Zrotation Xrotation Yrotation
              JOINT lThumb1
              {
                OFFSET 1.2192 -0.487915 3.41376
                CHANNELS 3 Zrotation Xrotation Yrotation
                JOINT lThumb2
                {
                  OFFSET 3.37035 -0.52449 3.41376
                  CHANNELS 3 Zrotation Xrotation Yrotation
                  End Site
                  {
                    OFFSET 1.78271 -1.18214 1.43049
                  }
                }
              }
              JOINT lIndex1
              {
                OFFSET 7.75947 0.938293 5.60832
                CHANNELS 3 Zrotation Xrotation Yrotation
                JOINT lIndex2
                {
                  OFFSET 2.54057 -0.884171 1.56538
                  CHANNELS 3 Zrotation Xrotation Yrotation
                  End Site
                  {
                    OFFSET 1.62519 -0.234802 1.16502
                  }
                }
              }
              JOINT lMid1
              {
                OFFSET 8.24714 1.18213 3.41376
                CHANNELS 3 Zrotation Xrotation Yrotation
                JOINT lMid2
                {
                  OFFSET 3.10165 -0.590103 1.0647
                  CHANNELS 3 Zrotation Xrotation Yrotation
                  End Site
                  {
                    OFFSET 2.48547 -0.328903 0.83742
                  }
                }
              }
              JOINT lRing1
              {
                OFFSET 8.82822 0.546677 1.51678
                CHANNELS 3 Zrotation Xrotation Yrotation
                JOINT lRing2
                {
                  OFFSET 2.60934 -0.819778 -0.0198488
                  CHANNELS 3 Zrotation Xrotation Yrotation
                  End Site
                  {
                    OFFSET 2.33842 -0.294052 0.168128
                  }
                }
              }
              JOINT lPinky1
              {
                OFFSET 8.27202 -0.0477905 -0.4584
                CHANNELS 3 Zrotation Xrotation Yrotation
                JOINT lPinky2
                {
                  OFFSET 1.82734 -0.647385 -0.700984
                  CHANNELS 3 Zrotation Xrotation Yrotation
                  End Site
                  {
                    OFFSET 1.69225 -0.51767 -0.607171
                  }
                }
              }
            }
          }
        }
      }
    }
  }
  JOINT rButtock
  {
    OFFSET -8.77824 4.35084 1.2192
    CHANNELS 3 Zrotation Xrotation Yrotation
    JOINT rThigh
    {
      OFFSET 0 -1.70687 -2.19456
      CHANNELS 3 Zrotation Xrotation Yrotation
      JOINT rShin
      {
        OFFSET 0 -36.8199 0.73152
        CHANNELS 3 Zrotation Xrotation Yrotation
        JOINT rFoot
        {
          OFFSET 0.73152 -45.1104 -5.12064
          CHANNELS 3 Zrotation Xrotation Yrotation
          End Site
          {
            OFFSET -1.1221 -3.69964 12.103
          }
        }
      }
    }
  }
  JOINT lButtock
  {
    OFFSET 8.77824 4.35084 1.2192
    CHANNELS 3 Zrotation Xrotation Yrotation
    JOINT lThigh
    {
      OFFSET 0 -1.70687 -2.19456
      CHANNELS 3 Zrotation Xrotation Yrotation
      JOINT lShin
      {
        OFFSET 0 -36.8199 0.73152
        CHANNELS 3 Zrotation Xrotation Yrotation
        JOINT lFoot
        {
          OFFSET -0.73152 -45.1104 -5.12064
          CHANNELS 3 Zrotation Xrotation Yrotation
          End Site
          {
            OFFSET 1.1221 -3.69964 12.103
          }
        }
      }
    }
  }
}
MOTION
Frames:	4
Frame Time:	0.03333
0.11586546897888184 -9.626704454421997 -1.483556441962719 -8.795619010925293 -14.423328399658203 6.307621479034424 -1.369567632675171 14.058021545410156 11.995991706848145 0.31934690475463867 -14.286920547485352 3.4962096214294434 -0.020759014412760735 13.138014793395996 10.764363288879395 3.180579423904419 -22.481782913208008 20.91189956665039 0.17609061300754547 0.12333343923091888 0.09071901440620422 -0.14678293466567993 -0.23494838178157806 0.06028593331575394 -0.08433251082897186 -0.11436808109283447 0.2866504490375519 5.158999919891357 71.5762939453125 62.825382232666016 -27.2736873626709 -43.01911926269531 89.83758544921875 -21.35611915588379 -73.71842193603516 -28.482563018798828 -0.04389972239732742 -0.09843730181455612 -0.018974050879478455 0.08165674656629562 -0.01070785615593195 -0.13848210871219635 -0.032382506877183914 -0.10291118919849396 0.04317425936460495 7.768824100494385 5.721224308013916 0.49843841791152954 -0.2267221212387085 -0.018210558220744133 -0.1339178830385208 2.7651572227478027 0.9774618148803711 0.05328221619129181 -0.325929194688797 0.3756532073020935 -0.1056419163942337 10.386865615844727 0.7304946184158325 -0.0902535691857338 -0.006715347524732351 0.0176096148788929 -0.20302714407444 2.1618895530700684 -0.8346218466758728 -0.4619274437427521 -0.2351938933134079 0.2501877546310425 0.018490247428417206 -62.662864685058594 -2.422635555267334 -37.04275131225586 28.4267635345459 -32.19340515136719 -70.30867767333984 -0.1525372564792633 -1.4449260234832764 0.39143258333206177 0.098933644592762 0.24595096707344055 -0.38839051127433777 0.16814500093460083 0.051174651831388474 -0.1634659767150879 -0.03996710479259491 -0.22582632303237915 -0.09025490283966064 -7.718924522399902 5.511356830596924 -0.4286825656890869 0.07934480905532837 0.08574149757623672 -0.25374069809913635 -2.7135982513427734 0.8811156749725342 0.14221790432929993 0.04696720838546753 -0.14249561727046967 0.025132933631539345 -10.174955368041992 0.9338830709457397 -0.08138760179281235 0.12504976987838745 0.039140280336141586 0.15236273407936096 -2.4300596714019775 -0.7072898745536804 0.22552736103534698 -0.14199958741664886 -0.050788361579179764 -0.09919247776269913 -10.659092903137207 -49.01397705078125 -24.56598663330078 -170.08798217773438 84.46546936035156 171.27694702148438 -25.71418571472168 -24.58085823059082 -37.013729095458984 -0.05155373737215996 -0.0764191597700119 0.16685383021831512 89.06645202636719 -50.582157135009766 78.91951751708984 4.354252338409424 79.91364288330078 -4.292374610900879 0.1504392772912979 1.6158071756362915 0.701779305934906
0.1165861263871193 -9.635496139526367 -1.4212059788405895 -8.902117729187012 -14.402422904968262 6.220417499542236 -1.6967484951019287 13.954462051391602 12.076958656311035 0.24255694448947906 -14.219053268432617 3.552625894546509 -0.04600280895829201 12.909927368164062 10.484932899475098 3.3353793621063232 -22.669191360473633 20.404926300048828 0.1671123504638672 0.06690797209739685 0.028970986604690552 -0.2681961953639984 -0.27053678035736084 -0.03961193934082985 -0.03628579154610634 -0.24364878237247467 0.39745405316352844 4.853506565093994 70.17256164550781 63.609214782714844 -27.189207077026367 -42.89504623413086 89.93936920166016 -17.24064826965332 -71.2262954711914 -24.189937591552734 -0.11349418014287949 -0.16906265914440155 -0.07236722856760025 0.02138320356607437 -0.12661795318126678 -0.08807627856731415 -0.03828558325767517 -0.06756705045700073 0.15213119983673096 7.7085862159729 5.679588317871094 0.5938460230827332 -0.2995010018348694 0.009284443221986294 0.00855829194188118 2.8118560314178467 1.0606634616851807 0.08604422211647034 -0.31441572308540344 0.3482849597930908 -0.12410993129014969 10.470499038696289 0.6253535151481628 -0.15439443290233612 -0.020609663799405098 0.2064082771539688 -0.20178446173667908 2.1892735958099365 -0.816246747970581 -0.431767076253891 -0.31497350335121155 0.27726733684539795 0.017592331394553185 -62.38439178466797 -1.346792221069336 -37.148746490478516 28.448440551757812 -32.0355110168457 -69.99960327148438 -0.19866730272769928 -1.7379875183105469 0.2642863988876343 0.11969221383333206 0.14090773463249207 -0.5697723031044006 0.1234905868768692 0.09966287761926651 -0.12947754561901093 -0.00370233878493309 -0.034978169947862625 -0.0819815844297409 -7.665718078613281 5.4825873374938965 -0.48088663816452026 0.06907498091459274 0.14040221273899078 -0.1915748417377472 -2.737088918685913 0.9236974716186523 0.3253248631954193 -0.007256019860506058 -0.06974060833454132 0.05954047664999962 -10.181802749633789 0.9345791935920715 -0.1081104427576065 0.15269826352596283 0.10567676275968552 0.07196836173534393 -2.3559741973876953 -0.6605322360992432 0.2879531681537628 -0.06927520036697388 -0.007613171823322773 -0.23394079506397247 -9.50150203704834 -48.78833770751953 -23.226287841796875 -169.87167358398438 85.15324401855469 171.0808563232422 -25.09572410583496 -23.812246322631836 -36.508392333984375 -0.045277051627635956 -0.12147480249404907 0.13565032184123993 87.30533599853516 -51.60628890991211 77.28619384765625 3.023637533187866 78.58161926269531 -2.8453927040100098 0.4363189935684204 2.2814455032348633 1.1083970069885254
0.1163708046078682 -9.871092438697815 -1.3450881466269493 -8.332423210144043 -10.780052185058594 5.740413188934326 -0.887092649936676 14.322413444519043 11.385499954223633 0.08884430676698685 -14.087645530700684 3.27199649810791 -0.3414953052997589 12.78994369506836 10.33200740814209 3.051034450531006 -22.81507682800293 19.970130920410156 0.17304627597332 0.06415878236293793 0.07404880970716476 -0.20297664403915405 -0.10446340590715408 -0.09800894558429718 -0.06920789927244186 -0.09490635246038437 0.28831803798675537 11.994257926940918 70.85511016845703 55.33012008666992 -27.21906852722168 -42.95180892944336 90.0074462890625 -16.214384078979492 -70.21914672851562 -22.818557739257812 -0.18821078538894653 -0.19294574856758118 0.03255895525217056 -0.0593583844602108 -0.13578714430332184 0.16394822299480438 -0.268536239862442 0.13644056022167206 0.07981270551681519 7.682762622833252 5.6717305183410645 0.7591160535812378 -0.2497691661119461 0.03520434722304344 0.037200234830379486 2.997554063796997 0.9587666392326355 -0.08409864455461502 -0.31738048791885376 0.28999993205070496 -0.2920483350753784 10.41385269165039 0.6545817255973816 0.07180080562829971 0.03154660016298294 0.14003635942935944 -0.1051722913980484 2.3046798706054688 -0.8779838681221008 -0.5373321771621704 -0.3770560920238495 0.23503899574279785 -0.10216313600540161 -62.3751335144043 -1.8349989652633667 -38.61537551879883 28.646364212036133 -31.459640502929688 -68.41797637939453 -0.027880355715751648 -2.9622597694396973 0.3264079988002777 0.04571450501680374 0.17695651948451996 -0.5471965670585632 0.08543713390827179 -0.028300510719418526 -0.07721558213233948 0.13788455724716187 0.02866068296134472 -0.08865519613027573 -7.693296909332275 5.615693092346191 -0.3474351763725281 -0.07906027883291245 0.08562063425779343 -0.11968488991260529 -2.8324501514434814 0.9067610502243042 0.30429837107658386 -0.21016521751880646 -0.045998550951480865 0.2913346588611603 -10.14355182647705 0.750993549823761 0.11104357242584229 0.19140513241291046 0.11959926038980484 0.054416727274656296 -2.3105103969573975 -0.8390988111495972 0.45000404119491577 -0.10186569392681122 -0.012155643664300442 -0.16564048826694489 -5.800543785095215 -48.84513854980469 -20.155061721801758 -161.45896911621094 87.2164535522461 162.43968200683594 -26.23822784423828 -22.544937133789062 -39.565616607666016 -0.07076243311166763 -0.09504673629999161 -0.03801201656460762 87.56522369384766 -54.921791076660156 75.46861267089844 2.6679768562316895 77.3140640258789 -2.5984392166137695 0.2783707082271576 3.8514981269836426 1.0204037427902222
0.12882184237241745 -9.909109771251678 -1.299706194549799 -8.922717094421387 -9.345367431640625 5.973300457000732 -1.1605770587921143 14.602926254272461 10.529366493225098 0.2701122760772705 -13.943887710571289 3.0121781826019287 -0.33947932720184326 12.984044075012207 9.785629272460938 3.019667625427246 -23.76767921447754 19.239500045776367 0.15408137440681458 0.07828233391046524 0.03909626230597496 -0.22456543147563934 -0.10076802223920822 -0.21777784824371338 -0.14769424498081207 -0.02431010641157627 0.34615859389305115 14.367486953735352 69.17070770263672 53.561378479003906 -27.273181915283203 -42.624610900878906 89.37071990966797 -12.10100269317627 -66.17282104492188 -18.256744384765625 -0.09918831288814545 -0.15867431461811066 0.05738632008433342 -0.00131120253354311 -0.15817879140377045 0.0824357345700264 -0.2356124371290207 0.3184645473957062 0.022800622507929802 7.7459845542907715 5.522446632385254 0.7417436242103577 -0.18546660244464874 -0.03042001649737358 -0.01415655855089426 2.902604341506958 0.9998385906219482 -0.05795048177242279 -0.22486241161823273 0.18718937039375305 -0.32766199111938477 10.402999877929688 0.6308018565177917 0.07928305864334106 -0.01900995336472988 0.04183332622051239 -0.047855086624622345 2.3354623317718506 -0.886712372303009 -0.3918416202068329 -0.23557288944721222 0.09544127434492111 -0.16998188197612762 -61.5169677734375 -1.464058518409729 -40.20880126953125 28.74342918395996 -30.90167999267578 -67.6970443725586 0.0473700650036335 -5.521885395050049 0.7389557361602783 0.08103868365287781 0.27710893750190735 -0.3563682734966278 0.0547991544008255 -0.06300444900989532 -0.1269633173942566 0.30824175477027893 0.01628112606704235 -0.13280391693115234 -7.77606725692749 5.596693515777588 -0.33933621644973755 0.09379489719867706 0.065684974193573 -0.03866736218333244 -2.794968366622925 0.9390812516212463 0.1680368036031723 -0.07321351766586304 -0.042477309703826904 0.2980693578720093 -10.219634056091309 0.7638599276542664 0.09453468769788742 -0.04063064604997635 0.05842715501785278 -0.12829655408859253 -2.213900327682495 -1.0127321481704712 0.4482419788837433 -0.07230644673109055 -0.056904103606939316 -0.23395207524299622 -2.7694530487060547 -49.878055572509766 -16.524925231933594 -165.50994873046875 86.64899444580078 166.65139770507812 -26.5898380279541 -21.2883243560791 -40.9740104675293 -0.08461902290582657 -0.0013196803629398346 -0.01811533235013485 85.12950134277344 -58.046958923339844 72.64460754394531 2.301020383834839 75.55262756347656 -2.294412136077881 0.1974768340587616 5.875078201293945 2.0557379722595215
